name C:\Users\u0101727\Documents\MyRepositories\upper-imu-dc\Results\main_tracking\Case_41\FLX01_orientations_groundFrame.mot
datacolumns 13
datarows 43
range 2.01000000 2.43000000
endheader 
time	radius_imu_[0][0]	radius_imu_[0][1]	radius_imu_[0][2]	radius_imu_[1][0]	radius_imu_[1][1]	radius_imu_[1][2]	radius_imu_[2][0]	radius_imu_[2][1]	radius_imu_[2][2]	radius_imu_x	radius_imu_y	radius_imu_z	
          2.01000000	          0.41891689	         -0.87174771	         -0.25409560	         -0.36349159	         -0.41743065	          0.83284183	         -0.83209524	         -0.25652990	         -0.49174172	         -2.10415550	         -0.25691250	          1.12283080	
          2.02000000	          0.42569719	         -0.86623723	         -0.26156253	         -0.36496393	         -0.42887592	          0.82635754	         -0.82799954	         -0.25631719	         -0.49871661	         -2.11379411	         -0.26464074	          1.11402612	
          2.03000000	          0.43265542	         -0.86055140	         -0.26881327	         -0.36641666	         -0.44027228	          0.81969455	         -0.82374032	         -0.25614763	         -0.50580656	         -2.12367076	         -0.27216074	          1.10493889	
          2.04000000	          0.43975979	         -0.85470636	         -0.27584121	         -0.36782259	         -0.45159237	          0.81287814	         -0.81933990	         -0.25601050	         -0.51297247	         -2.13373941	         -0.27946475	          1.09560375	
          2.05000000	          0.44697764	         -0.84871888	         -0.28264334	         -0.36915307	         -0.46281004	          0.80593603	         -0.81482329	         -0.25589673	         -0.52017292	         -2.14395010	         -0.28654869	          1.08605687	
          2.06000000	          0.45427608	         -0.84260598	         -0.28922034	         -0.37037940	         -0.47390104	          0.79889730	         -0.81021747	         -0.25579868	         -0.52736580	         -2.15425093	         -0.29341227	          1.07633513	
          2.07000000	          0.46162286	         -0.83638443	         -0.29557640	         -0.37147425	         -0.48484381	          0.79179124	         -0.80555025	         -0.25570992	         -0.53451027	         -2.16459040	         -0.30005882	          1.06647512	
          2.08000000	          0.46898736	         -0.83007030	         -0.30171867	         -0.37241328	         -0.49561999	          0.78464589	         -0.80084905	         -0.25562496	         -0.54156871	         -2.17492007	         -0.30649482	          1.05651194	
          2.09000000	          0.47634174	         -0.82367838	         -0.30765641	         -0.37317671	         -0.50621505	          0.77748663	         -0.79613924	         -0.25553913	         -0.54850895	         -2.18519728	         -0.31272900	          1.04647778	
          2.10000000	          0.48366228	         -0.81722171	         -0.31339986	         -0.37375076	         -0.51661861	          0.77033472	         -0.79144246	         -0.25544841	         -0.55530616	         -2.19538782	         -0.31877116	          1.03640044	
          2.11000000	          0.49093055	         -0.81071104	         -0.31895895	         -0.37412861	         -0.52682467	          0.76320610	         -0.78677505	         -0.25534952	         -0.56194452	         -2.20546811	         -0.32463086	          1.02630189	
          2.12000000	          0.49813436	         -0.80415448	         -0.32434201	         -0.37431089	         -0.53683160	          0.75611057	         -0.78214674	         -0.25523990	         -0.56841804	         -2.21542657	         -0.33031605	          1.01619720	
          2.13000000	          0.50526821	         -0.79755732	         -0.32955479	         -0.37430534	         -0.54664175	          0.74905161	         -0.77756000	         -0.25511785	         -0.57473066	         -2.22526383	         -0.33583198	          1.00609399	
          2.14000000	          0.51233311	         -0.79092207	         -0.33459985	         -0.37412571	         -0.55626092	          0.74202678	         -0.77301018	         -0.25498248	         -0.58089517	         -2.23499170	         -0.34118058	          0.99599257	
          2.15000000	          0.51933577	         -0.78424870	         -0.33947657	         -0.37379009	         -0.56569758	          0.73502872	         -0.76848639	         -0.25483373	         -0.58693138	         -2.24463106	         -0.34636036	          0.98588684	
          2.16000000	          0.52628736	         -0.77753503	         -0.34418149	         -0.37331878	         -0.57496201	          0.72804655	         -0.76397298	         -0.25467228	         -0.59286366	         -2.25420884	         -0.35136687	          0.97576555	
          2.17000000	          0.53320209	         -0.77077719	         -0.34870913	         -0.37273218	         -0.58406551	          0.72106741	         -0.75945128	         -0.25449953	         -0.59871841	         -2.26375502	         -0.35619343	          0.96561387	
          2.18000000	          0.54009580	         -0.76397006	         -0.35305279	         -0.37204902	         -0.59301969	          0.71407785	         -0.75490136	         -0.25431749	         -0.60452176	         -2.27329970	         -0.36083202	          0.95541490	
          2.19000000	          0.54698467	         -0.75710774	         -0.35720532	         -0.37128501	         -0.60183589	          0.70706506	         -0.75030342	         -0.25412876	         -0.61029776	         -2.28287086	         -0.36527410	          0.94515104	
          2.20000000	          0.55388412	         -0.75018396	         -0.36115980	         -0.37045207	         -0.61052466	          0.70001779	         -0.74563908	         -0.25393635	         -0.61606712	         -2.29249261	         -0.36951134	          0.93480526	
          2.21000000	          0.56080789	         -0.74319254	         -0.36491008	         -0.36955798	         -0.61909538	          0.69292698	         -0.74089231	         -0.25374348	         -0.62184631	         -2.30218400	         -0.37353622	          0.92436218	
          2.22000000	          0.56776713	         -0.73612781	         -0.36845126	         -0.36860642	         -0.62755599	          0.68578626	         -0.73605013	         -0.25355340	         -0.62764709	         -2.31195834	         -0.37734253	          0.91380903	
          2.23000000	          0.57476992	         -0.72898504	         -0.37177999	         -0.36759733	         -0.63591271	          0.67859209	         -0.73110310	         -0.25336899	         -0.63347645	         -2.32182290	         -0.38092572	          0.90313644	
          2.24000000	          0.58182096	         -0.72176065	         -0.37489457	         -0.36652763	         -0.64417005	          0.67134376	         -0.72604536	         -0.25319265	         -0.63933686	         -2.33177928	         -0.38428305	          0.89233877	
          2.25000000	          0.58892175	         -0.71445242	         -0.37779480	         -0.36539209	         -0.65233083	          0.66404300	         -0.72087432	         -0.25302613	         -0.64522708	         -2.34182418	         -0.38741342	          0.88141408	
          2.26000000	          0.59607107	         -0.70705947	         -0.38048152	         -0.36418438	         -0.66039638	          0.65669351	         -0.71558998	         -0.25287058	         -0.65114319	         -2.35195062	         -0.39031692	          0.87036371	
          2.27000000	          0.60326568	         -0.69958218	         -0.38295600	         -0.36289799	         -0.66836666	          0.64930044	         -0.71019404	         -0.25272670	         -0.65707963	         -2.36214919	         -0.39299413	          0.85919159	
          2.28000000	          0.61050110	         -0.69202207	         -0.38521924	         -0.36152712	         -0.67624048	          0.64186989	         -0.70468897	         -0.25259507	         -0.66303030	         -2.37240919	         -0.39544539	          0.84790360	
          2.29000000	          0.61777222	         -0.68438177	         -0.38727133	         -0.36006718	         -0.68401556	          0.63440865	         -0.69907733	         -0.25247635	         -0.66898922	         -2.38271936	         -0.39767012	          0.83650697	
          2.30000000	          0.62507367	         -0.67666498	         -0.38911105	         -0.35851501	         -0.69168855	          0.62692418	         -0.69336130	         -0.25237165	         -0.67495085	         -2.39306815	         -0.39966640	          0.82501005	
          2.31000000	          0.63239981	         -0.66887662	         -0.39073591	         -0.35686889	         -0.69925500	          0.61942477	         -0.68754278	         -0.25228261	         -0.68090998	         -2.40344344	         -0.40143092	          0.81342239	
          2.32000000	          0.63974448	         -0.66102290	         -0.39214248	         -0.35512814	         -0.70670932	          0.61191988	         -0.68162380	         -0.25221153	         -0.68686122	         -2.41383187	         -0.40295947	          0.80175507	
          2.33000000	          0.64710048	         -0.65311151	         -0.39332724	         -0.35329266	         -0.71404487	          0.60442056	         -0.67560733	         -0.25216121	         -0.69279829	         -2.42421799	         -0.40424774	          0.79002124	
          2.34000000	          0.65445903	         -0.64515167	         -0.39428759	         -0.35136238	         -0.72125402	          0.59693980	         -0.66949822	         -0.25213481	         -0.69871323	         -2.43458344	         -0.40529251	          0.77823664	
          2.35000000	          0.66180923	         -0.63715413	         -0.39502299	         -0.34933679	         -0.72832840	          0.58949262	         -0.66330411	         -0.25213559	         -0.70459584	         -2.44490644	         -0.40609287	          0.76641984	
          2.36000000	          0.66913798	         -0.62913097	         -0.39553581	         -0.34721478	         -0.73525929	          0.58209593	         -0.65703596	         -0.25216662	         -0.71043349	         -2.45516189	         -0.40665117	          0.75459226	
          2.37000000	          0.67643011	         -0.62109528	         -0.39583197	         -0.34499460	         -0.74203801	          0.57476806	         -0.65070810	         -0.25223053	         -0.71621137	         -2.46532202	         -0.40697364	          0.74277755	
          2.38000000	          0.68366895	         -0.61306066	         -0.39592094	         -0.34267409	         -0.74865647	          0.56752794	         -0.64433783	         -0.25232938	         -0.72191318	         -2.47535759	         -0.40707053	          0.73100083	
          2.39000000	          0.69083709	         -0.60504069	         -0.39581547	         -0.34025113	         -0.75510758	          0.56039425	         -0.63794458	         -0.25246447	         -0.72752209	         -2.48523944	         -0.40695567	          0.71928748	
          2.40000000	          0.69791734	         -0.59704835	         -0.39553085	         -0.33772405	         -0.76138570	          0.55338440	         -0.63154877	         -0.25263629	         -0.73302186	         -2.49494015	         -0.40664577	          0.70766195	
          2.41000000	          0.70489363	         -0.58909552	         -0.39508410	         -0.33509215	         -0.76748695	          0.54651352	         -0.62517056	         -0.25284432	         -0.73839794	         -2.50443566	         -0.40615939	          0.69614667	
          2.42000000	          0.71175168	         -0.58119260	         -0.39449297	         -0.33235611	         -0.77340945	          0.53979371	         -0.61882870	         -0.25308693	         -0.74363838	         -2.51370659	         -0.40551601	          0.68476117	
          2.43000000	          0.71847958	         -0.57334822	         -0.39377520	         -0.32951823	         -0.77915335	          0.53323335	         -0.61253966	         -0.25336116	         -0.74873446	         -2.52273920	         -0.40473502	          0.67352153	
